<svg xmlns="http://www.w3.org/2000/svg" xmlns:xlink="http://www.w3.org/1999/xlink" viewBox="0 0 270 120"><defs><style>.cls-1{fill:url(#linear-gradient);}.cls-2{fill:#f9ed32;}.cls-2,.cls-3{opacity:0.15;}.cls-3,.cls-4{fill:#d7df23;}.cls-5,.cls-7{fill:#fff;}.cls-5{opacity:0.25;}.cls-6{opacity:0.2;}</style><linearGradient id="linear-gradient" x1="135" y1="120" x2="135" gradientUnits="userSpaceOnUse"><stop offset="0" stop-color="#b4ca35"/><stop offset="1" stop-color="#3cb54a"/></linearGradient></defs><g id="Layer_2" data-name="Layer 2"><g id="Layer_1-2" data-name="Layer 1"><rect class="cls-1" width="270" height="120" rx="2.81"/><path class="cls-2" d="M270,74.46v40.4c0,2.84-1.39,5.14-3.1,5.14H58.76c-1.17,0-2.3-1-2.77-2.84s-.47-4.33,1.89-7.83C61,104.68,63.94,99,69.47,93.21c7.67-8,21.36-22.52,25-24.36,6.46-3.3,34.12,25.25,41.47,21,4.76-2.78,44.62-56.29,60-52.64,10.23,2.42,22.35,52.8,34.43,52.64,8-.11,12-40.31,20.2-48.32,4.5-4.37,12.74,9.94,17.15,17.69,1.22,2.13,1.92,8.07,2.28,14.79C270,74.14,270,74.3,270,74.46Z"/><path class="cls-2" d="M270,80.35v35.17c0,2.48-1.39,4.48-3.1,4.48H58.76A3.1,3.1,0,0,1,56,117.53c-.45-1.52-.47-3.77,1.89-6.82,3.14-4,6.06-9,11.59-14,7.67-7,21.36-19.6,25-21.21,6.46-2.87,34.12,22,41.47,18.26,4.76-2.42,44.62-49,60-45.83,10.23,2.11,22.35,46,34.43,45.83,8-.1,12-35.09,20.2-42.07,4.5-3.81,12.74,8.65,17.15,15.4,1.22,1.86,1.92,7,2.28,12.88C270,80.07,270,80.21,270,80.35Z"/><path class="cls-3" d="M270,87.25V116.3c0,2-1.39,3.7-3.1,3.7H58.76A3,3,0,0,1,56,118c-.45-1.26-.47-3.11,1.89-5.63,3.14-3.35,6.06-7.43,11.59-11.6,7.67-5.78,21.36-16.19,25-17.52,6.46-2.37,34.12,18.17,41.47,15.09,4.76-2,44.62-40.49,60-37.86,10.23,1.74,22.35,38,34.43,37.86,8-.09,12-29,20.2-34.75,4.5-3.15,12.74,7.14,17.15,12.72,1.22,1.53,1.92,5.8,2.28,10.63C270,87,270,87.14,270,87.25Z"/><path class="cls-4" d="M270,95.11v22.08a3,3,0,0,1-3.1,2.81H58.76A3,3,0,0,1,56,118.45c-.45-1-.47-2.37,1.89-4.28,3.14-2.54,6.06-5.65,11.59-8.82,7.67-4.39,21.36-12.3,25-13.31,6.46-1.8,34.12,13.8,41.47,11.46,4.76-1.52,44.62-30.77,60-28.77,10.23,1.32,22.35,28.86,34.43,28.77,8-.06,12-22,20.2-26.41,4.5-2.39,12.74,5.43,17.15,9.67,1.22,1.16,1.92,4.41,2.28,8.08A2.44,2.44,0,0,1,270,95.11Z"/><rect class="cls-5" x="220.29" y="50.5" width="25" height="19" rx="1.17"/><g class="cls-6"><path id="Trazado_1-2" data-name="Trazado 1-2" class="cls-7" d="M231.93,53.14l-.12.06a6.55,6.55,0,0,0-2.34,2.53,7.36,7.36,0,0,0-.76,4.65,7.17,7.17,0,0,0,3.4,5.23.61.61,0,0,0,.14.07A5.44,5.44,0,0,1,231,62a4.33,4.33,0,0,1,1.8-3.4c-.37-.7-.74-1.36-1.07-2a3.15,3.15,0,0,1-.17-2.41C231.62,53.78,231.79,53.47,231.93,53.14Zm1.59,5.57a4,4,0,0,0-2,3.19,5,5,0,0,0,2.4,4.68,7.29,7.29,0,0,0,.78.42l.1-.17c.08-.16.16-.32.23-.48a3.88,3.88,0,0,0-.15-3.68c-.35-.6-.74-1.18-1.09-1.78a2.34,2.34,0,0,1-.37-1.82c0-.1.06-.21.1-.36Zm-1.69-3.85A1.87,1.87,0,1,0,233.71,53h0a1.87,1.87,0,0,0-1.87,1.86Zm2.11,4.86a1.52,1.52,0,1,0,1.52-1.52,1.51,1.51,0,0,0-1.52,1.52Z"/></g></g></g></svg>