<svg xmlns="http://www.w3.org/2000/svg" xmlns:xlink="http://www.w3.org/1999/xlink" viewBox="0 0 270 120"><defs><style>.cls-1{fill:url(#linear-gradient);}.cls-2{fill:#3490cc;}.cls-3{fill:#3881c4;}.cls-4{fill:#3c7bbf;}.cls-5{fill:#3e76bb;}.cls-6,.cls-8{fill:#fff;}.cls-6{opacity:0.25;}.cls-7{opacity:0.2;}</style><linearGradient id="linear-gradient" x1="136.31" y1="154.61" x2="132.48" y2="-121.9" gradientUnits="userSpaceOnUse"><stop offset="0" stop-color="#3499cc"/><stop offset="0.11" stop-color="#35a2d2"/><stop offset="0.39" stop-color="#36b5dd"/><stop offset="0.69" stop-color="#37c0e4"/><stop offset="1" stop-color="#37c4e6"/></linearGradient></defs><g id="Layer_2" data-name="Layer 2"><g id="Layer_1-2" data-name="Layer 1"><rect class="cls-1" width="270" height="120" rx="2.81"/><path class="cls-2" d="M270,72.28v44.91a3,3,0,0,1-3.1,2.81H59.26a3.08,3.08,0,0,1-2.92-1.87c-.67-1.76-1.35-4.79,1.54-9.25C61,104,63.94,98.11,69.47,92.07c7.67-8.38,21.36-23.46,25-25.39,6.46-3.43,34.12,26.33,41.47,21.86,4.76-2.9,44.62-58.67,60-54.86,10.23,2.52,22.35,55,34.43,54.86,8-.12,12-42,20.2-50.36,4.5-4.56,12.74,10.36,17.15,18.44C268.94,58.87,269.65,65.17,270,72.28Z"/><path class="cls-3" d="M270,79.36v37.83a3,3,0,0,1-3.1,2.81H59.14a3.11,3.11,0,0,1-2.91-1.84c-.62-1.54-1.09-4,1.65-7.65,3.14-4.14,6.06-9.19,11.59-14.34,7.67-7.16,21.36-20,25-21.67,6.46-2.93,34.12,22.46,41.47,18.65,4.76-2.47,44.62-50.07,60-46.82,10.23,2.15,22.35,47,34.43,46.82,8-.1,12-35.85,20.2-43,4.5-3.89,12.74,8.84,17.15,15.74,1.23,1.91,1.93,7.25,2.29,13.29Z"/><path class="cls-4" d="M270,87v30.19a3,3,0,0,1-3.1,2.81H59a3.11,3.11,0,0,1-2.9-1.81c-.54-1.26-.73-3.2,1.79-5.9,3.14-3.37,6.06-7.47,11.59-11.66,7.67-5.81,21.36-16.27,25-17.61,6.46-2.38,34.12,18.26,41.47,15.16,4.76-2,44.62-40.69,60-38.05,10.23,1.75,22.35,38.16,34.43,38.05,8-.08,12-29.13,20.2-34.93,4.5-3.16,12.74,7.19,17.15,12.79,1.22,1.55,1.93,5.88,2.28,10.77A1.21,1.21,0,0,1,270,87Z"/><path class="cls-5" d="M270,95.11v22.08a3,3,0,0,1-3.1,2.81H58.76A3,3,0,0,1,56,118.45c-.45-1-.47-2.37,1.89-4.28,3.14-2.54,6.06-5.65,11.59-8.82,7.67-4.39,21.36-12.3,25-13.31,6.46-1.8,34.12,13.8,41.47,11.46,4.76-1.52,44.62-30.77,60-28.77,10.23,1.32,22.35,28.86,34.43,28.77,8-.06,12-22,20.2-26.41,4.5-2.39,12.74,5.43,17.15,9.67,1.22,1.16,1.92,4.41,2.28,8.08A2.44,2.44,0,0,1,270,95.11Z"/><rect class="cls-6" x="220.26" y="50.5" width="25" height="19" rx="1.17"/><g class="cls-7"><path id="Trazado_1-2" data-name="Trazado 1-2" class="cls-8" d="M231.91,53.14l-.12.06a6.5,6.5,0,0,0-2.35,2.53,7.43,7.43,0,0,0-.76,4.65,7.17,7.17,0,0,0,3.4,5.23l.14.07a5.44,5.44,0,0,1-1.3-3.71,4.36,4.36,0,0,1,1.8-3.4c-.37-.7-.74-1.36-1.06-2a3.16,3.16,0,0,1-.18-2.41C231.6,53.78,231.76,53.47,231.91,53.14Zm1.58,5.57a4,4,0,0,0-2,3.19,5,5,0,0,0,2.4,4.68,8.4,8.4,0,0,0,.78.42l.1-.17c.08-.16.16-.32.23-.48a3.88,3.88,0,0,0-.15-3.68c-.34-.6-.74-1.18-1.09-1.78a2.38,2.38,0,0,1-.37-1.82c0-.1.06-.21.1-.36Zm-1.69-3.85A1.87,1.87,0,1,0,233.68,53h0a1.87,1.87,0,0,0-1.87,1.86Zm2.11,4.86a1.52,1.52,0,1,0,1.52-1.52,1.51,1.51,0,0,0-1.52,1.52Z"/></g></g></g></svg>